<?xml version="1.0" encoding="UTF-8"?>
<svg enable-background="new 0 0 512 512" version="1.1" viewBox="0 0 512 512" xml:space="preserve" xmlns="http://www.w3.org/2000/svg">
<circle cx="256" cy="256" r="256" fill="#B9EAFF"/>
<path d="m287.48 510.07c126.53-15.517 224.52-123.35 224.52-254.07 0-19.656-2.222-38.793-6.416-57.18l-30.258-30.256-136.44 57.622-78.42-78.576-78.219-3.831 31.856 31.856-11.985 6.887-13.96-13.96-122.15 57.26 103.57 103.57-12.817 50.672 130.72 130z" fill="#35CCFF"/>
<g fill="#2B9153">
	<path d="m90.724 154.28c8.526-0.66 2.62 11.648 21.618 12.535s33.409 7.977 64.853 0-6.551 51.274-21.618 50.135-46.294 23.169-32.427 37.602 6.442-6.077 32.427 0 48.912 24.055 43.236 37.602-44.329 64.948-32.427 87.736c11.9 22.788-5.787 4.811-21.618-12.535-15.831-17.344-11.028-50.262-21.618-62.669s-32.427-23.042-21.618-37.602 18.234-7.216 10.809-25.067-24.019 7.47-43.236-12.535 1.529-38.488-10.809-50.135c-5.754-5.432-10.843-11.25-14.636-15.912-1.483-1.822 0.202-4.701 2.207-3.768 8.808 4.098 23.868-3.759 44.857-5.387z"/>
	<path d="m182.24 143.78s34.013 9.037 20.573 32.208 32.144-18.377 51.438-20.482-0.311-32.117-72.011-11.726z"/>
</g>
<path d="m256 143.19v12.021c6.834-1.561 7.128-7.332 0-12.021z" fill="#005D5E"/>
<g fill="#2B9153">
	<path d="m457.83 161.43c-42.875-13.941-59.387 15.284-86.04 0-26.652-15.284-57.359 0-57.359 0-19.409 10.245-42.296 11.254-71.699 16.629-15.353 2.807-18.304 8.076-18.475 25.357-0.053 5.406 3.948 14.336-7.085 18.672-25.978 10.207-19.108 25.641 0 24.647 15.694-0.819 16.425-25.753 31.199-22.187 5.453 1.315 8.449 8.78 13.052 12.619-13.396 1.153-35.604 16.298-45.371 40.148-11.374 27.779 9.652 44.566 34.125 59.354s6.549 65.15 17.061 79.138c10.512 13.99 10.512 7.194 17.061-19.784 6.549-26.979 31.366-68.546 34.125-98.923 2.757-30.377-15.855-12.79-34.125-19.785-14.317-5.48-16.672-26.671-17.022-35.581 1.376 0.998 2.757 1.948 4.134 2.839 28.534 18.475 47.656-13.772 57.359 16.629 5.089 15.943 12.728 28.882 18.842 37.585 3.658 5.206 10.666 4.434 13.417-1.477 3.587-7.709 10.762-16.379 25.102-19.48 27.955-6.046 15.21-20.154 43.02-66.513 27.808-46.36 71.554-35.948 28.679-49.887z"/>
	<path d="m216.05 277.31c-11.374 27.779 9.652 44.566 34.123 59.354 2.296 1.388 4.22 3.089 5.827 5.044v-103.46c-13.355 4.007-31.409 18.205-39.95 39.062z"/>
</g>
<g fill="#005D5E">
	<path d="m457.83 161.43c-42.875-13.941-59.387 15.284-86.04 0s-57.359 0-57.359 0c-16.384 8.649-35.261 10.721-58.428 14.388v55.096c1.726 2.232 3.42 4.584 5.42 6.249-1.681 0.145-3.503 0.512-5.42 1.086v103.46c15.531 18.877 1.708 61.418 11.235 74.095 10.512 13.988 10.514 7.194 17.062-19.785 6.549-26.979 31.366-68.548 34.125-98.923 2.757-30.377-15.855-12.79-34.125-19.785-14.317-5.482-16.672-26.671-17.022-35.581 1.376 0.998 2.755 1.948 4.134 2.839 28.534 18.477 47.656-13.772 57.36 16.629 5.089 15.943 12.728 28.882 18.842 37.585 3.658 5.208 10.666 4.434 13.415-1.476 3.587-7.709 10.762-16.379 25.102-19.48 27.955-6.046 15.21-20.154 43.02-66.513 27.808-46.357 71.554-35.943 28.679-49.884z"/>
	<path d="m373.78 329.56c5.506-3.036 14.603-6.437 23.83-0.555s17.88-0.129 23.83-0.555c11.9-0.85 52.688 15.139 0.833 63.514s-2.343-28.967-57.26-30.434c-28.441-0.76 0.98-27.677 8.767-31.97z"/>
</g>
</svg>
